<svg enable-background="new 0 0 64 64" height="64" viewBox="0 0 64 64" width="64" xmlns="http://www.w3.org/2000/svg"><g id="Layer_1"/><g id="Layer_2"/><g id="Layer_4"/><g id="Layer_5"/><g id="Layer_6"/><g id="Layer_7"/><g id="Layer_8"/><g id="Layer_9"/><g id="Layer_10"/><g id="Layer_11"/><g id="Layer_12"/><g id="Layer_13"/><g id="Layer_14"/><g id="Layer_15"/><g id="Layer_16"/><g id="Layer_17"/><g id="Layer_18"/><g id="Layer_19"/><g id="Layer_20"/><g id="Layer_21"/><g id="Layer_22"/><g id="Layer_23"/><g id="Layer_24"/><g id="Layer_25"/><g id="Layer_26"/><g id="Layer_27"/><g id="Layer_28"/><g id="Layer_29"/><g id="Layer_30"/><g id="Layer_31"/><g id="Layer_32"/><g id="Layer_33"/><g id="Layer_34"/><g id="Layer_35"/><g id="Layer_36"/><g id="Layer_37"/><g id="Layer_38"/><g id="Layer_39"/><g id="Layer_40"/><g id="Layer_41"/><g id="Layer_42"/><g id="Layer_43"/><g id="Layer_44"/><g id="Layer_45"/><g id="Layer_46"/><g id="Layer_47"/><g id="Layer_48"/><g id="Layer_49"/><g id="Layer_50"/><g id="Layer_51"/><g id="Layer_52"/><g id="Layer_53"/><g id="Layer_54"><path d="m49.87 4.92h-35.74c-.51 0-.94.41-.94.94v52.28c0 .53.43.94.94.94h35.74c.52 0 .939-.41.939-.94v-52.28c.001-.53-.419-.94-.939-.94zm-1.89 50.36c0 .47-.37.84-.811.84h-30.349c-.31 0-.58-.19-.72-.46-.05-.12-.08-.24-.08-.38v-46.56c0-.479.37-.84.8-.84h30.35c.32 0 .59.19.73.46.05.11.08.24.08.38z" fill="#ed1c24"/><path d="m39.51 31.94c-.16-.04-.24-.021-.319.13-.9 1.64-1.2 3.39-.91 5.239.01.091.08.181.16.24.68.59.97 1.33.77 2.21s-.77 1.431-1.65 1.65c-.199.04-.399.06-.6.06h-9.93c-1.2 0-2.08-.71-2.28-1.85-.13-.76.1-1.43.68-1.93.22-.2.3-.41.33-.681.19-1.74-.11-3.399-.96-4.939-.08-.141-.14-.181-.31-.13-1.16.3-2.39-.471-2.63-1.65-.26-1.22.54-2.41 1.74-2.61 1.09-.18 2.06.391 2.46 1.44.03.07.11.149.18.17.43.14.88.24 1.3.4.42.159.83.38 1.27.59.69-1.2 1.39-2.42 2.09-3.65-1.31-.85-1.37-2.439-.54-3.36.34-.38.77-.609 1.22-.699.14-.03.28-.04.42-.04.57 0 1.13.22 1.57.67.84.859.92 2.53-.48 3.43.7 1.22 1.391 2.44 2.09 3.65.41-.2.811-.41 1.23-.57s.859-.28 1.3-.4c.12-.04.19-.079.24-.21.33-.97 1.27-1.56 2.29-1.449.979.09 1.8.899 1.93 1.899.199 1.49-1.201 2.75-2.661 2.39z" fill="#ed1c24"/><path d="m39.51 31.94c-.16-.04-.24-.021-.319.13-.9 1.64-1.2 3.39-.91 5.239.01.091.08.181.16.24.68.59.97 1.33.77 2.21s-.77 1.431-1.65 1.65c-.199.04-.399.06-.6.06h-4.961v-18.939c.57 0 1.13.22 1.57.67.84.859.92 2.53-.48 3.43.7 1.22 1.391 2.44 2.09 3.65.41-.2.811-.41 1.23-.57s.859-.28 1.3-.4c.12-.04.19-.079.24-.21.33-.97 1.27-1.56 2.29-1.449.979.09 1.8.899 1.93 1.899.2 1.49-1.2 2.75-2.66 2.39z" fill="#00a651"/></g><g id="Layer_55"><path d="m50.81 5.86v52.28c0 .53-.42.94-.939.94h-17.871v-2.96h15.17c.44 0 .811-.37.811-.84v-46.56c0-.14-.03-.27-.08-.38-.141-.27-.41-.46-.73-.46h-15.171v-2.96h17.87c.52 0 .94.41.94.94z" fill="#00a651"/></g></svg>